<svg width="1440" height="1024" viewBox="0 0 1440 1024" fill="none" xmlns="http://www.w3.org/2000/svg">
<g clip-path="url(#clip0_118_19)">
<rect width="1440" height="1024" fill="#7F82F9"/>
<path d="M1353.23 -14.1526C1356.83 -18.3221 1363.68 -15.8327 1363.77 -10.3215L1365.34 91.151C1365.38 93.6634 1366.98 95.8854 1369.35 96.7185L1481.38 136.088C1487.21 138.137 1486.51 146.593 1480.42 147.659L1372.84 166.498C1369.87 167.019 1367.75 169.67 1367.89 172.687L1372.44 270.725C1372.71 276.528 1365.4 279.289 1361.77 274.757L1290.02 185.251C1288.62 183.502 1286.36 182.68 1284.16 183.121L1171.68 205.65C1165.98 206.791 1162.15 199.979 1166.08 195.704L1232.54 123.481C1234.58 121.259 1234.66 117.863 1232.71 115.553L1162.35 32.0236C1158.37 27.2988 1163.26 20.3685 1169.05 22.5415L1280.2 64.3093C1282.56 65.1932 1285.21 64.5178 1286.85 62.617L1353.23 -14.1526Z" fill="#F9F67F"/>
<ellipse cx="521" cy="1024" rx="120" ry="114" fill="#7FF9B9"/>
<path d="M-87.5156 436.27C-100.337 424.252 -94.5871 402.794 -77.4746 398.796L119.443 352.793C135.629 349.012 150 363.856 145.699 379.911L96.315 564.212C92.0131 580.267 72.1452 585.936 60.0188 574.569L-87.5156 436.27Z" fill="#F9F67F"/>
<ellipse cx="1261" cy="865.5" rx="47" ry="44.5" fill="#F97FBF"/>
</g>
<defs>
<clipPath id="clip0_118_19">
<rect width="1440" height="1024" fill="white"/>
</clipPath>
</defs>
</svg>
