<svg width="414" height="736" viewBox="0 0 414 736" fill="none" xmlns="http://www.w3.org/2000/svg">
<g clip-path="url(#clip0_118_2)">
<rect width="414" height="736" fill="#7F82F9"/>
<path d="M-87.0917 571.532C-99.5059 559.53 -93.8868 538.559 -77.1347 534.372L63.6919 499.174C79.9624 495.108 94.6174 510.012 90.2768 526.212L53.8107 662.305C49.4701 678.505 29.3261 684.085 17.2688 672.428L-87.0917 571.532Z" fill="#F9F67F"/>
<path d="M122.911 -38.5682C126.505 -42.9342 133.591 -40.3581 133.543 -34.703L133.228 1.94112C133.206 4.50867 134.82 6.80568 137.243 7.65498L174.342 20.658C180.076 22.6679 179.533 30.9494 173.585 32.1932L138.272 39.5784C135.446 40.1693 133.442 42.6889 133.501 45.5752L134.211 79.9315C134.331 85.7636 126.901 88.3202 123.407 83.6486L99.58 51.7859C98.1503 49.874 95.7231 48.9917 93.3994 49.539L54.6725 58.6603C48.9945 59.9976 44.9406 53.2657 48.7784 48.8726L71.3865 22.9935C73.2859 20.8194 73.3676 17.6009 71.5811 15.3331L49.2553 -13.0067C45.4951 -17.7798 50.3974 -24.4765 56.0836 -22.3345L92.8715 -8.47612C95.2743 -7.57096 97.9868 -8.29505 99.6188 -10.2773L122.911 -38.5682Z" fill="#7FF9B9"/>
<ellipse cx="384" cy="687" rx="120" ry="114" fill="#F97FBF"/>
</g>
<defs>
<clipPath id="clip0_118_2">
<rect width="414" height="736" fill="white"/>
</clipPath>
</defs>
</svg>
